<?xml version="1.0" encoding="utf-8"?>
<!-- Generator: Adobe Illustrator 16.0.0, SVG Export Plug-In . SVG Version: 6.00 Build 0)  -->
<!DOCTYPE svg PUBLIC "-//W3C//DTD SVG 1.1//EN" "http://www.w3.org/Graphics/SVG/1.1/DTD/svg11.dtd">
<svg version="1.1" id="gewitter" xmlns="http://www.w3.org/2000/svg" xmlns:xlink="http://www.w3.org/1999/xlink" x="0px" y="0px"
	 width="267px" height="167px" viewBox="0 0 267 167" enable-background="new 0 0 267 167" xml:space="preserve">
<path fill-rule="evenodd" clip-rule="evenodd" fill="#333333" d="M109.85,111.95c0.061,0.122,0.069,0.247,0.025,0.375l-1.7,4.7
	c-0.053,0.127-0.145,0.219-0.275,0.274c-0.123,0.062-0.248,0.069-0.375,0.025c-0.127-0.053-0.219-0.145-0.275-0.275
	c-0.062-0.122-0.07-0.247-0.025-0.375l1.7-4.7c0.053-0.127,0.145-0.219,0.275-0.274c0.123-0.062,0.248-0.069,0.375-0.025
	C109.702,111.728,109.793,111.819,109.85,111.95z M101.85,111.95c0.061,0.122,0.069,0.247,0.025,0.375l-1.7,4.7
	c-0.053,0.127-0.145,0.219-0.275,0.274c-0.123,0.062-0.248,0.069-0.375,0.025c-0.127-0.053-0.219-0.145-0.275-0.275
	c-0.062-0.122-0.07-0.247-0.025-0.375l1.7-4.7c0.053-0.127,0.145-0.219,0.275-0.274c0.123-0.062,0.248-0.069,0.375-0.025
	C101.702,111.728,101.793,111.819,101.85,111.95z M93.2,111.7c0.123-0.062,0.248-0.069,0.375-0.025
	c0.127,0.053,0.219,0.145,0.275,0.275c0.061,0.122,0.069,0.247,0.025,0.375l-1.7,4.7c-0.053,0.127-0.145,0.219-0.275,0.274
	c-0.123,0.062-0.248,0.069-0.375,0.025c-0.127-0.053-0.219-0.145-0.275-0.275c-0.062-0.122-0.07-0.247-0.025-0.375l1.7-4.7
	C92.978,111.848,93.069,111.756,93.2,111.7z M147.85,111.95c0.062,0.122,0.07,0.247,0.025,0.375l-1.7,4.7
	c-0.053,0.127-0.145,0.219-0.274,0.274c-0.123,0.062-0.248,0.069-0.375,0.025c-0.127-0.053-0.219-0.145-0.275-0.275
	c-0.062-0.122-0.07-0.247-0.025-0.375l1.7-4.7c0.053-0.127,0.145-0.219,0.274-0.274c0.123-0.062,0.248-0.069,0.375-0.025
	C147.701,111.728,147.793,111.819,147.85,111.95z M154.925,111.975c0.053-0.127,0.145-0.219,0.274-0.274
	c0.123-0.062,0.248-0.069,0.375-0.025c0.127,0.053,0.219,0.145,0.275,0.275c0.062,0.122,0.07,0.247,0.025,0.375l-1.7,4.7
	c-0.053,0.127-0.145,0.219-0.274,0.274c-0.123,0.062-0.248,0.069-0.375,0.025c-0.127-0.053-0.219-0.145-0.275-0.275
	c-0.062-0.122-0.07-0.247-0.025-0.375L154.925,111.975z M138.925,111.975c0.053-0.127,0.145-0.219,0.274-0.274
	c0.123-0.062,0.248-0.069,0.375-0.025c0.127,0.053,0.219,0.145,0.275,0.275c0.062,0.122,0.07,0.247,0.025,0.375l-1.7,4.7
	c-0.053,0.127-0.145,0.219-0.274,0.274c-0.123,0.062-0.248,0.069-0.375,0.025c-0.127-0.053-0.219-0.145-0.275-0.275
	c-0.062-0.122-0.07-0.247-0.025-0.375L138.925,111.975z M139.375,133.2c0.131-0.062,0.264-0.069,0.4-0.025
	c0.127,0.044,0.218,0.128,0.274,0.25c0.062,0.132,0.069,0.265,0.024,0.4l-2.049,5.6c-0.045,0.127-0.128,0.219-0.25,0.275
	c-0.131,0.062-0.265,0.069-0.4,0.024c-0.127-0.044-0.219-0.127-0.275-0.25c-0.061-0.131-0.069-0.264-0.025-0.399l2.051-5.601
	C139.169,133.348,139.252,133.256,139.375,133.2z M129.075,139.075l2.05-5.601c0.044-0.127,0.127-0.219,0.25-0.274
	c0.131-0.062,0.264-0.069,0.4-0.025c0.127,0.044,0.218,0.128,0.275,0.25c0.062,0.132,0.07,0.265,0.025,0.4l-2.05,5.6
	c-0.044,0.127-0.127,0.219-0.25,0.275c-0.131,0.062-0.264,0.069-0.4,0.024c-0.127-0.044-0.219-0.127-0.275-0.25
	C129.039,139.344,129.03,139.211,129.075,139.075z M135.5,122c0.123-0.062,0.248-0.07,0.375-0.025
	c0.127,0.054,0.219,0.145,0.275,0.275c0.061,0.123,0.068,0.248,0.024,0.375l-2.101,5.6c-0.053,0.128-0.145,0.22-0.274,0.275
	c-0.124,0.062-0.249,0.07-0.375,0.025c-0.128-0.054-0.219-0.145-0.274-0.275c-0.062-0.123-0.07-0.248-0.025-0.375l2.1-5.6
	C135.278,122.147,135.369,122.056,135.5,122z M144.15,122.25c0.061,0.123,0.068,0.248,0.024,0.375l-2.101,5.6
	c-0.053,0.128-0.145,0.22-0.274,0.275c-0.124,0.062-0.249,0.07-0.375,0.025c-0.128-0.054-0.219-0.145-0.274-0.275
	c-0.062-0.123-0.07-0.248-0.025-0.375l2.1-5.6c0.054-0.128,0.145-0.22,0.275-0.275c0.123-0.062,0.248-0.07,0.375-0.025
	C144.002,122.028,144.094,122.119,144.15,122.25z M147.375,133.2c0.131-0.062,0.264-0.069,0.4-0.025
	c0.127,0.044,0.218,0.128,0.274,0.25c0.062,0.132,0.069,0.265,0.024,0.4l-2.049,5.6c-0.045,0.127-0.128,0.219-0.25,0.275
	c-0.131,0.062-0.265,0.069-0.4,0.024c-0.127-0.044-0.219-0.127-0.275-0.25c-0.061-0.131-0.069-0.264-0.025-0.399l2.051-5.601
	C147.169,133.348,147.252,133.256,147.375,133.2z M152.15,122.25c0.061,0.123,0.068,0.248,0.024,0.375l-2.101,5.6
	c-0.053,0.128-0.145,0.22-0.274,0.275c-0.124,0.062-0.249,0.07-0.375,0.025c-0.128-0.054-0.219-0.145-0.274-0.275
	c-0.062-0.123-0.07-0.248-0.025-0.375l2.1-5.6c0.054-0.128,0.145-0.22,0.275-0.275c0.123-0.062,0.248-0.07,0.375-0.025
	C152.002,122.028,152.094,122.119,152.15,122.25z M85.125,133.475c0.044-0.127,0.127-0.219,0.25-0.274
	c0.131-0.062,0.264-0.069,0.4-0.025c0.127,0.044,0.218,0.128,0.275,0.25c0.062,0.132,0.07,0.265,0.025,0.4l-2.05,5.6
	c-0.044,0.127-0.127,0.219-0.25,0.275c-0.131,0.062-0.264,0.069-0.4,0.024c-0.127-0.044-0.219-0.127-0.275-0.25
	c-0.062-0.131-0.07-0.264-0.025-0.399L85.125,133.475z M101.375,133.2c0.131-0.062,0.264-0.069,0.4-0.025
	c0.127,0.044,0.218,0.128,0.275,0.25c0.062,0.132,0.07,0.265,0.025,0.4l-2.05,5.6c-0.044,0.127-0.127,0.219-0.25,0.275
	c-0.131,0.062-0.264,0.069-0.4,0.024c-0.127-0.044-0.219-0.127-0.275-0.25c-0.062-0.131-0.07-0.264-0.025-0.399l2.05-5.601
	C101.169,133.348,101.252,133.256,101.375,133.2z M93.375,133.2c0.131-0.062,0.264-0.069,0.4-0.025
	c0.127,0.044,0.218,0.128,0.275,0.25c0.062,0.132,0.07,0.265,0.025,0.4l-2.05,5.6c-0.044,0.127-0.127,0.219-0.25,0.275
	c-0.131,0.062-0.264,0.069-0.4,0.024c-0.127-0.044-0.219-0.127-0.275-0.25c-0.062-0.131-0.07-0.264-0.025-0.399l2.05-5.601
	C93.169,133.348,93.252,133.256,93.375,133.2z M89.225,122.275c0.053-0.128,0.145-0.22,0.275-0.275
	c0.124-0.062,0.249-0.07,0.375-0.025c0.127,0.054,0.219,0.145,0.275,0.275c0.061,0.123,0.069,0.248,0.025,0.375l-2.1,5.6
	c-0.053,0.128-0.145,0.22-0.275,0.275c-0.124,0.062-0.249,0.07-0.375,0.025c-0.127-0.054-0.219-0.145-0.275-0.275
	c-0.061-0.123-0.069-0.248-0.025-0.375L89.225,122.275z M106.15,122.25c0.061,0.123,0.069,0.248,0.025,0.375l-2.1,5.6
	c-0.053,0.128-0.145,0.22-0.275,0.275c-0.124,0.062-0.249,0.07-0.375,0.025c-0.127-0.054-0.219-0.145-0.275-0.275
	c-0.061-0.123-0.069-0.248-0.025-0.375l2.1-5.6c0.053-0.128,0.145-0.22,0.275-0.275c0.124-0.062,0.249-0.07,0.375-0.025
	C106.002,122.028,106.094,122.119,106.15,122.25z M98.15,122.25c0.061,0.123,0.069,0.248,0.025,0.375l-2.1,5.6
	c-0.053,0.128-0.145,0.22-0.275,0.275c-0.124,0.062-0.249,0.07-0.375,0.025c-0.127-0.054-0.219-0.145-0.275-0.275
	c-0.061-0.123-0.069-0.248-0.025-0.375l2.1-5.6c0.053-0.128,0.145-0.22,0.275-0.275c0.124-0.062,0.249-0.07,0.375-0.025
	C98.002,122.028,98.094,122.119,98.15,122.25z"/>
<path fill-rule="evenodd" clip-rule="evenodd" fill="none" stroke="#333333" d="M187.5,56.55c2.934,1.133,5.5,2.6,7.699,4.4
	c7,5.733,8.834,13.667,5.5,23.8c-1.566,3.334-3.949,6.25-7.149,8.75c-6.467,5-13.866,5.416-22.2,1.25c-2.066,2.1-4.9,3.883-8.5,5.35
	c-7.232,2.867-14.732,2.634-22.5-0.699c-2.666,2.333-6.133,4.1-10.4,5.3c-8.566,2.399-16.867,0.75-24.9-4.95
	c-4.566,2.566-10.033,4.25-16.4,5.05C75.85,106.467,64.867,103,55.7,94.4c-3.167-2.9-5.733-6.75-7.7-11.55
	c-3.934-9.6-2.917-19.2,3.05-28.8l2.05-2.95c1.9-2.333,4.15-4.45,6.75-6.35c8.333-6.033,18.617-8.7,30.85-8l5.05-6.55
	c4.3-4.833,8.867-8.483,13.7-10.95c15.434-7.9,30.517-2.4,45.25,16.5h3.551c2.9,0.167,5.684,0.7,8.35,1.6
	c8.5,2.867,14.2,8.883,17.1,18.05L187.5,56.55z M125.4,110.8l-5.85,15.7h5.9l-20.1,33.85l7.8-23.8h-5.75l9.9-25.75H125.4z"/>
</svg>
