<?xml version="1.0" encoding="utf-8"?>
<!-- Generator: Adobe Illustrator 16.0.0, SVG Export Plug-In . SVG Version: 6.00 Build 0)  -->
<!DOCTYPE svg PUBLIC "-//W3C//DTD SVG 1.1//EN" "http://www.w3.org/Graphics/SVG/1.1/DTD/svg11.dtd">
<svg version="1.1" id="nebel" xmlns="http://www.w3.org/2000/svg" xmlns:xlink="http://www.w3.org/1999/xlink" x="0px" y="0px"
	 width="267px" height="167px" viewBox="0 0 267 167" enable-background="new 0 0 267 167" xml:space="preserve">
<path fill-rule="evenodd" clip-rule="evenodd" fill="none" stroke="#333333" d="M259,15.3c-4.7-0.267-10.267-1.466-16.7-3.6
	c-7.533-2.8-13.183-4.9-16.95-6.3C218.617,2.9,213,1.3,208.5,0.6c-6.066-1-11.566-0.75-16.5,0.75c-4.033,1.233-8,3.533-11.9,6.9
	c-6.333,5.467-9.8,8.4-10.399,8.8c-3.3,2.3-7.233,3.817-11.8,4.55c-2.768,0.433-7.066,0.667-12.9,0.7
	c-6.367,0.034-14.283-1.5-23.75-4.6c-11.167-3.667-18.917-5.8-23.25-6.4c-8.1-1.133-12.4-1.733-12.9-1.8
	c-4.533-0.7-8.75-1.517-12.65-2.45c-3.2-0.767-7.217-1.167-12.05-1.2C57.233,5.817,53.1,5.967,48,6.3
	c-4.533,0.3-12.083,1.434-22.65,3.4C16.017,11.433,8.233,12.3,2,12.3"/>
<path fill-rule="evenodd" clip-rule="evenodd" fill="none" stroke="#333333" d="M1.5,36.55c5.733-0.033,13.083-0.9,22.05-2.6
	c9.8-1.867,16.983-2.917,21.55-3.15c11.9-0.6,21.417-0.25,28.55,1.05c3.867,0.7,9.5,1.8,16.9,3.3c6.5,1.2,12.2,1.9,17.1,2.1
	c4.333,0.2,12.65,0.917,24.95,2.15c10.133,1.033,18.683,1.5,25.65,1.4c6.666-0.066,11.066-0.183,13.2-0.35
	c4.6-0.333,8.583-1.083,11.95-2.25c2.833-1,6.583-2.483,11.25-4.45c4.3-1.667,8.5-2.967,12.6-3.9c6.4-1.467,15.1-0.3,26.1,3.5
	l13.15,4.55c5,1.567,9.334,2.45,13,2.65"/>
<path fill-rule="evenodd" clip-rule="evenodd" fill="none" stroke="#333333" d="M1,60.8c5.267,0,12.183-0.85,20.75-2.55
	c9.133-1.767,15.95-2.75,20.45-2.95c11.6-0.5,22.466-0.05,32.6,1.35c1.5,0.2,8.55,1.733,21.15,4.6c8.566,1.933,15.7,2.583,21.4,1.95
	c20.566-2.233,38.617-3.534,54.15-3.9c3.367-0.066,7.883-0.05,13.55,0.05c5.467,0.066,9.483,0.066,12.05,0
	c2.934-0.1,6.984-0.117,12.15-0.05c4.7-0.033,9.1-0.35,13.2-0.95c4.6-0.667,10.866,0.25,18.8,2.75c9.3,2.933,15.55,4.5,18.75,4.7"/>
<path fill-rule="evenodd" clip-rule="evenodd" fill="none" stroke="#333333" d="M0.5,85.05c4.767-0.033,11.267-0.867,19.5-2.5
	c8.5-1.7,14.95-2.617,19.35-2.75C50.483,79.467,62.7,80.033,76,81.5c3.467,0.367,7.667,1.167,12.6,2.4
	c2.833,0.7,7.1,1.817,12.8,3.35c10.434,2.566,18.983,3.2,25.65,1.9c0.367-0.066,9.8-2.367,28.3-6.9
	c11.066-2.733,20.867-4.217,29.4-4.45c5.233-0.133,9.867,0,13.9,0.4c4.066,0.4,8.1,1.15,12.1,2.25
	c3.066,0.833,7.467,2.583,13.2,5.25c5.134,1.966,9.716,2.35,13.75,1.149c2.733-0.833,6.5-0.482,11.3,1.051
	c6.133,1.967,9.967,3.016,11.5,3.149"/>
<path fill-rule="evenodd" clip-rule="evenodd" fill="none" stroke="#333333" d="M0,109.3c4.333-0.033,10.4-0.85,18.2-2.45
	c7.933-1.633,14.017-2.482,18.25-2.55c6.2-0.1,12.966,0.05,20.3,0.45c4.767,0.267,11.583,0.783,20.45,1.55
	c4,0.333,8.9,1.267,14.7,2.8c3.3,0.867,8.283,2.25,14.95,4.15c12.333,3.267,22.3,3.883,29.9,1.85c4.4-1.166,9.483-2.899,15.25-5.199
	c3.3-1.301,8.217-3.301,14.75-6c12-4.768,22.416-7.301,31.25-7.601c5.666-0.2,10.4,0.067,14.2,0.8c4.167,0.768,8.25,2.268,12.25,4.5
	c3.2,1.768,7.833,4.45,13.899,8.051c5.334,2.866,10.184,4.766,14.551,5.699c0.934,0.2,2.283,0.384,4.05,0.551
	c2.033,0.166,3.384,0.3,4.05,0.399"/>
</svg>
