<?xml version="1.0" encoding="utf-8"?>
<!-- Generator: Adobe Illustrator 16.0.0, SVG Export Plug-In . SVG Version: 6.00 Build 0)  -->
<!DOCTYPE svg PUBLIC "-//W3C//DTD SVG 1.1//EN" "http://www.w3.org/Graphics/SVG/1.1/DTD/svg11.dtd">
<svg version="1.1" id="sonne_x5F_wolken" xmlns="http://www.w3.org/2000/svg" xmlns:xlink="http://www.w3.org/1999/xlink" x="0px"
	 y="0px" width="267px" height="167px" viewBox="0 0 267 167" enable-background="new 0 0 267 167" xml:space="preserve">
<path fill-rule="evenodd" clip-rule="evenodd" fill="none" stroke="#333333" d="M182.4,15.75V44.6 M236.35,61.05l-28.4,5
	 M236.35,80.05l-28.4-5 M191.475,88.475c2.367-1.066,4.542-2.592,6.525-4.575c4.267-4.267,6.4-9.434,6.4-15.5
	c0-6.033-2.134-11.184-6.4-15.45s-9.417-6.4-15.45-6.4s-11.183,2.133-15.45,6.4c-3.701,3.701-5.793,8.068-6.275,13.1
	c1.979,0.269,3.904,0.718,5.775,1.35c8.5,2.867,14.2,8.883,17.1,18.049l3.801,1.15C188.91,87.145,190.236,87.77,191.475,88.475
	c1.342,0.75,2.584,1.591,3.725,2.525c7,5.732,8.834,13.666,5.5,23.8c-0.396,0.843-0.846,1.659-1.35,2.45
	c-1.476,2.332-3.408,4.432-5.8,6.3c-6.467,5-13.866,5.417-22.2,1.25c-2.066,2.101-4.9,3.884-8.5,5.351
	c-7.232,2.866-14.732,2.633-22.5-0.701c-2.666,2.334-6.133,4.101-10.4,5.301c-8.566,2.4-16.867,0.75-24.9-4.95
	c-4.566,2.567-10.033,4.25-16.4,5.05c-12.8,1.667-23.783-1.8-32.95-10.4c-3.167-2.899-5.733-6.75-7.7-11.549
	c-3.934-9.601-2.917-19.201,3.05-28.801l2.05-2.95c1.9-2.333,4.15-4.45,6.75-6.35c8.333-6.033,18.617-8.7,30.85-8l5.05-6.55
	c4.3-4.833,8.867-8.483,13.7-10.95c15.396-7.881,30.446-2.431,45.15,16.35l0.775,0.15h2.875c0.864,0.05,1.723,0.133,2.574,0.25
	 M154.6,65.65c0.031,0.054,0.064,0.104,0.1,0.15h0.676l1.425,0.25 M217.6,112.55l-18.55-22.101 M229.85,97.949l-25-14.399
	 M163.65,19.05l9.85,27.1 M217.6,28.6l-18.55,22.05 M201.1,19.05l-9.85,27.1 M134.9,43.15l25,14.4 M147.1,28.6l18.6,22.05
	 M229.85,43.15l-25,14.4"/>
</svg>
