<?xml version="1.0" encoding="utf-8"?>
<!-- Generator: Adobe Illustrator 16.0.0, SVG Export Plug-In . SVG Version: 6.00 Build 0)  -->
<!DOCTYPE svg PUBLIC "-//W3C//DTD SVG 1.1//EN" "http://www.w3.org/Graphics/SVG/1.1/DTD/svg11.dtd">
<svg version="1.1" id="sonne" xmlns="http://www.w3.org/2000/svg" xmlns:xlink="http://www.w3.org/1999/xlink" x="0px" y="0px"
	 width="267px" height="167px" viewBox="0 0 267 167" enable-background="new 0 0 267 167" xml:space="preserve">
<path fill-rule="evenodd" clip-rule="evenodd" fill="none" stroke="#333333" d="M146.449,20.35L132.8,57.9 M142.15,110.25
	c-5.9,5.934-13.034,8.9-21.4,8.9s-15.517-2.967-21.45-8.9c-5.933-5.934-8.9-13.084-8.9-21.45c0-8.367,2.967-15.517,8.9-21.45
	c5.934-5.934,13.083-8.9,21.45-8.9s15.5,2.966,21.4,8.9c5.933,5.933,8.899,13.083,8.899,21.45
	C151.05,97.166,148.083,104.316,142.15,110.25z M195.3,104.95L155.949,98 M169.35,33.55l-25.75,30.6 M186.3,53.75l-34.649,20
	 M195.3,78.55l-39.351,6.95 M120.5,15.75v40 M94.5,20.35l13.65,37.55 M45.65,78.55L85,85.5 M45.65,104.95L85,98 M71.6,33.55
	l25.75,30.6 M54.65,53.75l34.65,20 M94.5,163.15l13.65-37.551 M120.45,167.75l0.05-40 M71.6,149.95l25.75-30.601 M146.449,163.15
	L132.8,125.6 M169.35,149.95L143.6,119.35 M54.65,129.75l34.65-20 M186.3,129.75l-34.649-20"/>
</svg>
