<?xml version="1.0" encoding="utf-8"?>
<!-- Generator: Adobe Illustrator 16.0.0, SVG Export Plug-In . SVG Version: 6.00 Build 0)  -->
<!DOCTYPE svg PUBLIC "-//W3C//DTD SVG 1.1//EN" "http://www.w3.org/Graphics/SVG/1.1/DTD/svg11.dtd">
<svg version="1.1" id="viele_x5F_wolken" xmlns="http://www.w3.org/2000/svg" xmlns:xlink="http://www.w3.org/1999/xlink" x="0px"
	 y="0px" width="267px" height="167px" viewBox="0 0 267 167" enable-background="new 0 0 267 167" xml:space="preserve">
<path fill-rule="evenodd" clip-rule="evenodd" fill="none" stroke="#333333" d="M211.6,47.25c2.9,0.167,5.684,0.7,8.35,1.6
	c8.5,2.867,14.201,8.883,17.101,18.05l3.8,1.15c2.934,1.133,5.5,2.6,7.7,4.4c7,5.733,8.833,13.667,5.5,23.8
	c-1.566,3.334-3.95,6.25-7.149,8.75c-6.467,5-13.867,5.416-22.201,1.25c-2.066,2.1-4.899,3.883-8.5,5.35
	c-7.232,2.867-14.732,2.634-22.5-0.699c-2.666,2.333-6.133,4.1-10.399,5.3c-8.566,2.399-16.866,0.75-24.899-4.95
	c-4.567,2.566-10.033,4.25-16.4,5.05c-12.8,1.667-23.783-1.8-32.95-10.399c-1.768-1.619-3.351-3.536-4.75-5.75
	c-4.408,2.342-9.625,3.893-15.65,4.649C75.85,106.467,64.867,103,55.7,94.4c-3.167-2.9-5.733-6.75-7.7-11.55
	c-3.934-9.6-2.917-19.2,3.05-28.8l2.05-2.95c1.9-2.333,4.15-4.45,6.75-6.35c8.333-6.033,18.617-8.7,30.85-8l5.05-6.55
	c4.3-4.833,8.867-8.483,13.7-10.95c15.434-7.9,30.517-2.4,45.25,16.5h0.551c2.437-2.008,4.953-3.675,7.55-5
	c15.434-7.9,30.517-2.4,45.25,16.5H211.6z M155.25,35.75h3c2.9,0.167,5.684,0.7,8.35,1.6c8.5,2.867,14.2,8.883,17.1,18.05
	l3.801,1.15c2.934,1.133,5.5,2.6,7.699,4.4c7,5.733,8.834,13.667,5.5,23.8c-1.566,3.334-3.949,6.25-7.149,8.75
	c-6.467,5-13.866,5.416-22.2,1.25c-2.066,2.1-4.9,3.883-8.5,5.35c-7.232,2.867-14.732,2.634-22.5-0.699
	c-2.666,2.333-6.133,4.1-10.4,5.3c-8.566,2.399-16.867,0.75-24.9-4.95c-0.245,0.138-0.495,0.271-0.75,0.4"/>
</svg>
