<?xml version="1.0" encoding="utf-8"?>
<!-- Generator: Adobe Illustrator 16.0.0, SVG Export Plug-In . SVG Version: 6.00 Build 0)  -->
<!DOCTYPE svg PUBLIC "-//W3C//DTD SVG 1.1//EN" "http://www.w3.org/Graphics/SVG/1.1/DTD/svg11.dtd">
<svg version="1.1" id="wolken" xmlns="http://www.w3.org/2000/svg" xmlns:xlink="http://www.w3.org/1999/xlink" x="0px" y="0px"
	 width="267px" height="167px" viewBox="0 0 267 167" enable-background="new 0 0 267 167" xml:space="preserve">
<path fill-rule="evenodd" clip-rule="evenodd" fill="none" stroke="#333333" d="M195.199,60.95c7,5.733,8.834,13.667,5.5,23.8
	c-1.566,3.334-3.949,6.25-7.149,8.75c-6.467,5-13.866,5.416-22.2,1.25c-2.066,2.1-4.9,3.883-8.5,5.35
	c-7.232,2.867-14.732,2.634-22.5-0.699c-2.666,2.333-6.133,4.1-10.4,5.3c-8.566,2.399-16.867,0.75-24.9-4.95
	c-4.566,2.566-10.033,4.25-16.4,5.05C75.85,106.467,64.867,103,55.7,94.4c-3.167-2.9-5.733-6.75-7.7-11.55
	c-3.934-9.6-2.917-19.2,3.05-28.8l2.05-2.95c1.9-2.333,4.15-4.45,6.75-6.35c8.333-6.033,18.617-8.7,30.85-8l5.05-6.55
	c4.3-4.833,8.867-8.483,13.7-10.95c15.434-7.9,30.517-2.4,45.25,16.5h3.551c2.9,0.167,5.684,0.7,8.35,1.6
	c8.5,2.867,14.2,8.883,17.1,18.05l3.801,1.15C190.434,57.683,193,59.15,195.199,60.95z"/>
</svg>
